<svg width="40" height="53" viewBox="0 0 40 53" fill="none" xmlns="http://www.w3.org/2000/svg">
<path d="M18.1505 51.3455C3.37268 29.7868 0.629639 27.5742 0.629639 19.651C0.629639 8.79804 9.37249 0 20.1574 0C30.9423 0 39.6852 8.79804 39.6852 19.651C39.6852 27.5742 36.9422 29.7868 22.1643 51.3455C21.1945 52.7553 19.1202 52.7552 18.1505 51.3455Z" fill="#FFB800"/>
<path d="M27.8086 9.52775H25.5246V7.48608H23.2407V9.52775H16.3888V7.48608H14.1049V9.52775H11.8209C10.5613 9.52775 9.53699 10.4434 9.53699 11.5694V25.8611C9.53699 26.9871 10.5613 27.9028 11.8209 27.9028H27.8086C29.0682 27.9028 30.0925 26.9871 30.0925 25.8611V11.5694C30.0925 10.4434 29.0682 9.52775 27.8086 9.52775ZM22.5692 24.8403L19.7725 23.5254L16.9758 24.8403L17.5103 22.0554L15.2469 20.0852L18.3736 19.6789L19.7725 17.1472L21.1714 19.6789L24.2982 20.0852L22.0359 22.0564L22.5692 24.8403ZM27.8086 14.6319H11.8209V12.5903H27.8086V14.6319Z" fill="white"/>
</svg>
