<svg width="42" height="56" viewBox="0 0 42 56" fill="none" xmlns="http://www.w3.org/2000/svg">
<path d="M17.3113 54.9539C2.71023 33.6218 0 31.4325 0 23.5926C0 12.8537 8.63827 4.14819 19.2942 4.14819C29.9501 4.14819 38.5884 12.8537 38.5884 23.5926C38.5884 31.4325 35.8782 33.6218 21.2771 54.9539C20.3189 56.3488 18.2694 56.3487 17.3113 54.9539Z" fill="#7F28C3"/>
<path d="M25.4286 12H12.5714C11.1513 12 10 13.0944 10 14.4444V31.5556C10 32.9056 11.1513 34 12.5714 34H25.4286C26.8487 34 28 32.9056 28 31.5556V14.4444C28 13.0944 26.8487 12 25.4286 12Z" fill="white"/>
<path d="M10 20.5556H28H10ZM15.1429 24.2222V27.8889V24.2222ZM15.1429 15.6667V16.8889V15.6667Z" fill="white"/>
<path d="M10 20.5556H28M15.1429 24.2222V27.8889M15.1429 15.6667V16.8889M12.5714 12H25.4286C26.8487 12 28 13.0944 28 14.4444V31.5556C28 32.9056 26.8487 34 25.4286 34H12.5714C11.1513 34 10 32.9056 10 31.5556V14.4444C10 13.0944 11.1513 12 12.5714 12Z" stroke="#7F28C3" stroke-width="2" stroke-linecap="round" stroke-linejoin="round"/>
<rect x="0.5" y="0.5" width="41" height="55" stroke="black"/>
</svg>
