<svg width="40" height="54" viewBox="0 0 40 54" fill="none" xmlns="http://www.w3.org/2000/svg">
<path d="M17.9446 52.9105C2.80937 30.6947 0 28.4147 0 20.25C0 9.0662 8.95427 0 20 0C31.0457 0 40 9.0662 40 20.25C40 28.4147 37.1906 30.6947 22.0554 52.9105C21.0622 54.3632 18.9377 54.3631 17.9446 52.9105Z" fill="#E6005A"/>
<path d="M31.1435 17.5063L31.1809 15.1277V15.1212L29.116 10.136V10.1295V9.68308C29.3848 9.27253 29.3746 8.92389 29.3133 8.69255C29.1603 8.11582 28.582 7.84864 28.5173 7.81931L28.4153 7.7737H25.1973L25.0476 7.92032C24.619 8.34065 24.5407 8.74142 24.5509 9.00209C24.5611 9.31163 24.6938 9.55274 24.8095 9.70589V10.0252L24.0509 11.7423L24.0271 11.6739V11.3611C24.2176 11.0223 24.204 10.7323 24.1495 10.54C24.0237 10.0741 23.5985 9.85251 23.5508 9.8297L23.442 9.77431H21.139L20.9859 9.94374C20.4961 10.4846 20.5811 11.0451 20.7988 11.3872V11.5892L20.6662 11.9313C20.4621 11.8629 20.2512 11.814 20.0403 11.7847C20.5913 11.2731 19.7681 10.83 18.0843 11.814L18.0503 11.7977C17.6284 9.05096 15.9208 9.64072 17.4311 12.0128C17.4379 12.0258 17.4311 12.0454 17.4141 12.0454C17.0093 12.1008 16.6828 12.1855 16.4106 12.28L16.3902 12.2637V11.524C16.3902 9.5951 14.9003 7.90077 12.8967 7.72808C10.6209 7.54236 8.69893 9.26601 8.69893 11.41V17.4574C8.69893 17.4574 8.68873 17.477 8.67852 17.477H7.73965C7.73965 17.477 7.71924 17.4868 7.71924 17.4965V28.1643C7.71924 28.8779 8.32134 29.4546 9.06632 29.4546H30.2318C30.9768 29.4546 31.5789 28.8779 31.5789 28.1643V17.5063H31.1401H31.1435ZM16.3936 13.1923C16.3936 13.1923 16.4004 13.176 16.4072 13.176C16.5569 13.1402 16.7168 13.0945 16.8971 13.0196C16.6896 13.2738 16.5195 13.5572 16.3936 13.8635V13.1923ZM15.4547 12.7785V13.3715C15.4547 13.3715 15.4445 13.3911 15.4309 13.3911C14.6928 13.2477 13.23 13.1695 12.5463 14.5966L12.3728 14.9551L12.7606 14.8149C13.2096 14.652 14.5125 14.3066 15.1316 14.6325C15.3017 14.7237 15.4071 14.8573 15.4547 15.043V17.4574C15.4547 17.4574 15.4445 17.477 15.4343 17.477H9.65482C9.65482 17.477 9.63441 17.4672 9.63441 17.4574V11.7489C9.63441 10.7062 10.1311 9.69937 11.0257 9.1031C11.5768 8.7349 12.0938 8.62086 12.5803 8.62738C12.6653 8.62738 12.7504 8.63064 12.8354 8.64041C12.866 8.64041 12.9001 8.65019 12.9307 8.65345C12.9919 8.65996 13.0565 8.66974 13.1144 8.67951C13.1518 8.68603 13.1858 8.6958 13.2232 8.70558C13.2776 8.71861 13.3321 8.73165 13.3865 8.74468C13.4239 8.75445 13.4613 8.76749 13.4988 8.78052C13.5498 8.79681 13.5974 8.8131 13.6484 8.83265C13.6859 8.84895 13.7233 8.86524 13.7573 8.88153C13.8049 8.90108 13.8491 8.92389 13.8934 8.9467C13.9308 8.96625 13.9648 8.9858 13.9988 9.00535C14.043 9.02815 14.0839 9.05422 14.1281 9.08029C14.1621 9.1031 14.1961 9.1259 14.2301 9.14871C14.2709 9.17478 14.3084 9.2041 14.3492 9.23343C14.3832 9.2595 14.4138 9.2823 14.4444 9.30837C14.4819 9.3377 14.5193 9.37028 14.5533 9.40286C14.5839 9.42893 14.6111 9.45825 14.6417 9.48758C14.6758 9.52016 14.7098 9.556 14.7404 9.59184C14.7676 9.62117 14.7948 9.65049 14.822 9.68308C14.8526 9.71892 14.8799 9.75802 14.9105 9.79712C14.9343 9.8297 14.9581 9.86229 14.9819 9.89487C15.0091 9.93397 15.0329 9.97633 15.0601 10.0154C15.0806 10.048 15.101 10.0839 15.1214 10.1197C15.1452 10.1621 15.1656 10.2077 15.186 10.25C15.203 10.2859 15.22 10.3185 15.237 10.3543C15.2574 10.3999 15.2745 10.4488 15.2915 10.4977C15.3051 10.5335 15.3187 10.5661 15.3289 10.6019C15.3459 10.6573 15.3595 10.7095 15.3731 10.7648C15.3799 10.7974 15.3901 10.8268 15.3969 10.8593C15.4139 10.9473 15.4309 11.0353 15.4377 11.1265C15.4377 11.133 15.4377 11.1396 15.4377 11.1461C14.6758 11.0157 13.3083 10.9994 12.6483 12.3679L12.4748 12.7264L12.8626 12.5862C13.3117 12.4233 14.6145 12.0779 15.2336 12.4038C15.3255 12.4527 15.3969 12.5146 15.4513 12.5895V12.7752L15.4547 12.7785ZM16.2473 17.4509L16.2269 17.4314V15.6654L17.0978 17.4444L16.2473 17.4509ZM17.4243 16.1281C17.074 15.4145 17.0876 14.6618 17.4039 14.0786C17.7883 13.3748 18.5877 12.9479 18.5877 12.9479C18.6694 12.9121 18.751 12.8828 18.8361 12.8534C18.8633 12.8437 18.8939 12.8371 18.9211 12.8274C18.9755 12.8111 19.0334 12.798 19.0878 12.785C19.1218 12.7785 19.1558 12.772 19.1898 12.7655C19.2409 12.7557 19.2919 12.7524 19.3429 12.7459C19.3803 12.7426 19.4143 12.7361 19.4518 12.7361C19.5266 12.7329 19.6014 12.7329 19.6763 12.7361C19.7273 12.7361 19.7783 12.7426 19.8294 12.7492C19.86 12.7492 19.8906 12.7557 19.9178 12.7589C19.9722 12.7655 20.0233 12.7752 20.0777 12.7883C20.1015 12.7948 20.1287 12.8013 20.1525 12.8046C20.2069 12.8176 20.2648 12.8339 20.3192 12.8502C20.326 12.8502 20.3328 12.8567 20.343 12.8599C20.4179 12.886 20.4893 12.9121 20.5641 12.9447C20.6458 12.9805 20.724 13.0196 20.8022 13.0685C20.8771 13.1141 20.9485 13.163 21.0166 13.2118C21.0846 13.264 21.1492 13.3161 21.2071 13.3748C21.2479 13.4106 21.2819 13.4497 21.3193 13.4888C21.3363 13.5084 21.3533 13.5279 21.3703 13.5475C21.4043 13.5833 21.435 13.6224 21.4622 13.6615C21.4792 13.6843 21.4962 13.7104 21.5166 13.7364C21.5438 13.7755 21.5676 13.8114 21.5914 13.8505C21.6289 13.9091 21.6595 13.971 21.6901 14.0362C21.7037 14.0655 21.7139 14.0949 21.7275 14.1242C21.7479 14.1698 21.7649 14.2154 21.7819 14.261C21.7921 14.2904 21.8023 14.3229 21.8092 14.3523C21.8228 14.4044 21.8364 14.4565 21.8466 14.5087C21.8534 14.5347 21.8568 14.5608 21.8636 14.5869C21.8772 14.6683 21.8874 14.7465 21.8942 14.8312L20.6049 15.1994C20.5131 15.2255 20.4655 15.3167 20.4893 15.4014C20.5165 15.4862 20.6117 15.535 20.7002 15.5122L21.884 15.1734L21.9078 15.1897L21.9997 17.4574C21.9997 17.4574 21.9894 17.477 21.9792 17.477L18.2339 17.4933L17.4277 16.1248L17.4243 16.1281ZM23.4624 13.0945L22.8943 14.3848H22.8569C22.7072 13.5996 22.2548 12.899 21.5914 12.4168L21.5846 12.3973C21.6153 12.3158 21.816 11.8042 21.8262 11.7782V11.234L21.8398 11.0451L21.6901 10.9017C21.6629 10.8724 21.6391 10.8268 21.6561 10.7583H23.146C23.146 10.7583 23.163 10.7811 23.1664 10.7909C23.1698 10.8105 23.1596 10.8659 23.095 10.9603L23.01 11.0842V11.8466L23.4624 13.075V13.088V13.0945ZM30.1604 17.4607C30.1604 17.4607 30.1502 17.4803 30.14 17.4803H23.5814C23.5814 17.4803 23.561 17.4705 23.561 17.4607V16.4132V15.3656L23.9624 14.4565L24.5543 13.1174L25.83 10.2305V10.224V9.53319L25.8198 9.31814L25.6667 9.17478C25.5136 9.03141 25.5681 8.87175 25.6463 8.75445H28.1636C28.2282 8.80007 28.303 8.8685 28.32 8.93366C28.3371 9.00209 28.2894 9.11287 28.1908 9.23669L28.0887 9.36702V10.3217L30.1536 15.307C30.1536 15.307 30.1536 15.3102 30.1536 15.3135V17.4574L30.1604 17.4607Z" fill="white"/>
</svg>
